<svg id="Layer_1" data-name="Layer 1" xmlns="http://www.w3.org/2000/svg" viewBox="0 0 91.92 153.06"><defs><style>.cls-1{fill:#242426;}.cls-2{fill:#f2f0f0;}</style></defs><path class="cls-1" d="M1054.78,486.62v.74C1054.79,487.12,1054.79,486.87,1054.78,486.62Z" transform="translate(-962.87 -449.95)"/><path class="cls-1" d="M1054.78,486.62v.74C1054.79,487.12,1054.79,486.87,1054.78,486.62Z" transform="translate(-962.87 -449.95)"/><path class="cls-1" d="M1043.63,550.88a6.38,6.38,0,0,0-4.53,1.9,6.45,6.45,0,0,0-1.9,4.59v21.57a6.5,6.5,0,1,0,13,.1V557.47A6.61,6.61,0,0,0,1043.63,550.88Zm-17.31-17.34a6.47,6.47,0,0,0-6.46,6.49V561.6a6.59,6.59,0,0,0,6.39,6.62,6.51,6.51,0,0,0,6.59-6.49V540.16A6.62,6.62,0,0,0,1026.32,533.54Zm4.62,40.91a6.49,6.49,0,0,0-9.18,0,6.5,6.5,0,1,0,11.08,4.93A6.37,6.37,0,0,0,1030.94,574.45Zm-22-58.22a6.47,6.47,0,0,0-6.46,6.49v21.57a6.57,6.57,0,0,0,6.4,6.59,6.48,6.48,0,0,0,6.59-6.49V522.82A6.56,6.56,0,0,0,1009,516.23Zm4.63,40.88a6.47,6.47,0,0,0-4.59-1.9,6.49,6.49,0,1,0,6.49,6.82A6.34,6.34,0,0,0,1013.6,557.11Zm0,17.34a6.47,6.47,0,0,0-4.59-1.9,6.5,6.5,0,1,0,6.49,6.83A6.37,6.37,0,0,0,1013.6,574.45Zm-22-58.22a6.47,6.47,0,0,0-6.46,6.49v56.19a6.51,6.51,0,1,0,13,.13V522.82A6.59,6.59,0,0,0,991.6,516.23Zm-17.38,34.65a6.49,6.49,0,0,0-6.43,6.49v21.57a6.5,6.5,0,1,0,13,.1V557.47A6.61,6.61,0,0,0,974.22,550.88Zm71-63.32a0,0,0,0,1,0,0c-2.43-2.7-4.67-6-6.43-7.39-1.4-1-3.49-3.16-5.39-2.86-2.87.46-2.37,6.86-2.8,8.75a26.67,26.67,0,0,1-6.72,11.29,23.81,23.81,0,0,1-6,4.26c-8.62,4.36-19.87,3.89-27.59-1.6a20.62,20.62,0,0,1-7.16-9c-1.13-2.76-1.73-7.25-4.46-8.92a4.85,4.85,0,0,0-3.9.37,24,24,0,0,0-3.62,3.33c-.3.3-.64.63-1,1l0,0a5,5,0,0,0,.16,7c6.23,6,19.41,16,38.35,15.85a53.15,53.15,0,0,0,36.22-14.19A5.64,5.64,0,0,0,1045.26,487.56Zm3,47.87a6.5,6.5,0,0,0-11.09,4.6,6.45,6.45,0,0,0,1.9,4.59,6.37,6.37,0,0,0,4.93,1.9,6.5,6.5,0,0,0,4.26-11.09Zm3.36-58.19a48.46,48.46,0,0,0-58.89-24.83,42.42,42.42,0,0,0-7.36,3.33,47.31,47.31,0,0,0-18.64,19.64c-1.66,3.13-3.76,6.72-3.89,10.39v101.7A15.51,15.51,0,0,0,978.38,603h60.89a15.54,15.54,0,0,0,15.51-15.54V486.63C1054.61,483.07,1052.28,478.58,1051.65,477.24Zm-59.35-9.18c5.29-4.7,14.08.8,11.71,7.15-1.79,4.93-9.35,6.93-12.88,2.9C988.37,475,989.4,470.65,992.3,468.06Z" transform="translate(-962.87 -449.95)"/><path class="cls-2" d="M1004,475.21c-1.79,4.93-9.35,6.93-12.88,2.9-2.76-3.16-1.73-7.46,1.17-10.05C997.59,463.36,1006.38,468.86,1004,475.21Z" transform="translate(-962.87 -449.95)"/><path class="cls-2" d="M1050.17,540.37a6.51,6.51,0,0,1-6.13,6.16,6.5,6.5,0,1,1,6.13-6.16Z" transform="translate(-962.87 -449.95)"/><path class="cls-2" d="M1050.18,557.48V579a6.49,6.49,0,0,1-6.6,6.5,6.56,6.56,0,0,1-6.39-6.6V557.37a6.52,6.52,0,0,1,6.45-6.5A6.62,6.62,0,0,1,1050.18,557.48Z" transform="translate(-962.87 -449.95)"/><path class="cls-2" d="M1032.85,579.38a6.49,6.49,0,1,1-1.89-4.93A6.52,6.52,0,0,1,1032.85,579.38Z" transform="translate(-962.87 -449.95)"/><path class="cls-2" d="M1032.85,540.16v21.56a6.49,6.49,0,0,1-6.6,6.49,6.58,6.58,0,0,1-6.39-6.6V540a6.5,6.5,0,0,1,6.45-6.49A6.6,6.6,0,0,1,1032.85,540.16Z" transform="translate(-962.87 -449.95)"/><path class="cls-2" d="M1015.51,522.82v21.56a6.48,6.48,0,0,1-6.6,6.49,6.55,6.55,0,0,1-6.39-6.6V522.71a6.49,6.49,0,0,1,6.45-6.49A6.59,6.59,0,0,1,1015.51,522.82Z" transform="translate(-962.87 -449.95)"/><path class="cls-2" d="M1015.5,579.37a6.48,6.48,0,1,1-1.89-4.92A6.5,6.5,0,0,1,1015.5,579.37Z" transform="translate(-962.87 -449.95)"/><path class="cls-2" d="M1015.5,562a6.5,6.5,0,0,1-6.15,6.14,6.49,6.49,0,1,1,6.15-6.14Z" transform="translate(-962.87 -449.95)"/><path class="cls-2" d="M998.14,522.82V579a6.49,6.49,0,0,1-6.61,6.49,6.56,6.56,0,0,1-6.38-6.6V522.71a6.47,6.47,0,0,1,6.44-6.49A6.59,6.59,0,0,1,998.14,522.82Z" transform="translate(-962.87 -449.95)"/><path class="cls-2" d="M980.77,557.48V579a6.5,6.5,0,1,1-13-.1V557.37a6.44,6.44,0,0,1,1.9-4.59,6.52,6.52,0,0,1,4.54-1.91A6.62,6.62,0,0,1,980.77,557.48Z" transform="translate(-962.87 -449.95)"/><path class="cls-2" d="M1044.91,495.44a53.28,53.28,0,0,1-36.24,14.2c-18.95.13-32.12-9.82-38.35-15.86a5,5,0,0,1-.16-7l0,0c.33-.35.65-.68,1-1a24,24,0,0,1,3.6-3.32c.88-.54,3-.9,3.92-.35,2.71,1.64,3.32,6.16,4.44,8.91a20.55,20.55,0,0,0,7.17,9c7.72,5.5,19,6,27.6,1.6a23.83,23.83,0,0,0,6-4.26A26.37,26.37,0,0,0,1030.6,486c.46-1.87-.06-8.29,2.79-8.74,1.93-.29,4,1.82,5.39,2.86,1.77,1.35,4,4.68,6.43,7.38l0,.05A5.63,5.63,0,0,1,1044.91,495.44Z" transform="translate(-962.87 -449.95)"/></svg>