<?xml version="1.0" encoding="utf-8"?>
<!-- Generator: Adobe Illustrator 27.2.0, SVG Export Plug-In . SVG Version: 6.00 Build 0)  -->
<svg version="1.1" xmlns="http://www.w3.org/2000/svg" xmlns:xlink="http://www.w3.org/1999/xlink" x="0px" y="0px"
	 viewBox="0 0 400 400" style="enable-background:new 0 0 400 400;" xml:space="preserve">
<style type="text/css">
	.st0{fill:#242426;}
	.st1{fill:#F2F0F0;}
	.st2{fill:#7F7F7F;}
</style>
<g id="Layer_1">
	<g>
		<path class="st0" d="M146.5,142.25v1.07C146.51,142.97,146.51,142.61,146.5,142.25z"/>
		<g>
			<path class="st0" d="M146.5,142.25v1.07C146.51,142.97,146.51,142.61,146.5,142.25z"/>
			<path class="st0" d="M130.34,235.35c-2.56,0-4.87,1.06-6.56,2.75c-1.69,1.69-2.75,4.05-2.75,6.66V276c0,5.16,4.05,9.45,9.26,9.55
				c5.26,0.1,9.55-4.15,9.55-9.4V244.9C139.84,239.69,135.55,235.3,130.34,235.35z M105.26,210.22c-2.56,0.05-4.92,1.06-6.61,2.75
				c-1.69,1.74-2.75,4.05-2.75,6.66v31.25c0,5.16,4.1,9.5,9.26,9.6c5.26,0.05,9.55-4.2,9.55-9.4v-31.25
				C114.72,214.61,110.47,210.22,105.26,210.22z M111.97,269.49c-1.69-1.69-4.05-2.75-6.66-2.75c-2.6,0-4.92,1.06-6.66,2.75
				c-1.69,1.74-2.75,4.05-2.75,6.66c0,2.6,1.06,4.97,2.75,6.66c1.83,1.83,4.39,2.89,7.19,2.75c4.77-0.24,8.63-4.15,8.87-8.92
				C114.86,273.83,113.8,271.28,111.97,269.49z M80.14,185.14c-2.56,0-4.92,1.06-6.61,2.75c-1.69,1.69-2.75,4.05-2.75,6.66v31.25
				c0,5.16,4.1,9.45,9.26,9.55c5.26,0.1,9.55-4.15,9.55-9.4v-31.25C89.59,189.48,85.35,185.09,80.14,185.14z M86.84,244.37
				c-1.69-1.69-4.05-2.75-6.66-2.75c-2.6,0-4.92,1.06-6.66,2.75c-1.69,1.69-2.75,4.05-2.75,6.66c0,2.6,1.06,4.97,2.75,6.66
				c1.83,1.78,4.39,2.89,7.14,2.75c4.77-0.24,8.68-4.15,8.92-8.92C89.73,248.71,88.67,246.15,86.84,244.37z M86.84,269.49
				c-1.69-1.69-4.05-2.75-6.66-2.75c-2.6,0-4.92,1.06-6.66,2.75c-1.69,1.74-2.75,4.05-2.75,6.66c0,2.6,1.06,4.97,2.75,6.66
				c1.83,1.83,4.39,2.89,7.19,2.75c4.77-0.24,8.63-4.15,8.87-8.92C89.73,273.83,88.67,271.28,86.84,269.49z M54.96,185.14
				c-2.56,0-4.92,1.06-6.61,2.75c-1.69,1.69-2.75,4.05-2.75,6.66v81.41c0,5.16,4.1,9.5,9.26,9.6c5.26,0.05,9.6-4.2,9.6-9.4v-81.46
				C64.46,189.48,60.17,185.09,54.96,185.14z M29.79,235.35c-2.56,0-4.87,1.06-6.56,2.75c-1.74,1.69-2.75,4.05-2.75,6.66V276
				c0,5.16,4.05,9.45,9.21,9.55c5.3,0.1,9.6-4.15,9.6-9.4V244.9C39.29,239.69,35,235.3,29.79,235.35z M132.71,143.62
				c-0.05,0-0.05-0.05-0.05-0.05c-3.52-3.91-6.75-8.73-9.31-10.71c-2.03-1.5-5.06-4.58-7.81-4.15c-4.15,0.67-3.42,9.93-4.05,12.68
				c-1.45,5.69-5.59,12.35-9.74,16.35c-2.56,2.51-5.5,4.58-8.68,6.17c-12.49,6.32-28.79,5.64-39.98-2.31
				c-4.44-3.18-8.1-7.52-10.37-13.02c-1.64-4-2.51-10.51-6.46-12.93c-1.35-0.77-4.39-0.29-5.64,0.53c-1.88,1.11-3.62,3.28-5.26,4.82
				c-0.43,0.43-0.92,0.92-1.4,1.45l-0.05,0.05c-2.7,2.89-2.6,7.38,0.24,10.13c9.02,8.73,28.12,23.15,55.56,22.96
				c26.19-0.14,43.69-12.39,52.47-20.55C135.45,152.01,135.65,146.94,132.71,143.62z M137.09,212.97c-1.74-1.69-4.05-2.75-6.66-2.75
				c-2.6,0-4.97,1.06-6.66,2.75c-1.69,1.74-2.75,4.05-2.75,6.66s1.06,4.97,2.75,6.66c1.78,1.83,4.34,2.89,7.14,2.75
				c4.77-0.24,8.68-4.15,8.92-8.92C139.99,217.31,138.88,214.8,137.09,212.97z M141.96,128.67c-6.8-13.89-17.51-24.5-29.95-31.16
				c-8.49-4.58-17.84-7.38-27.25-8.15c-9.98-0.77-19.44,0.39-28.12,3.33c-3.71,1.25-7.28,2.89-10.66,4.82
				c-11.14,6.27-20.45,15.92-27.01,28.45c-2.41,4.53-5.45,9.74-5.64,15.05v147.34c0,12.44,10.03,22.52,22.47,22.52h88.21
				c12.39,0,22.47-10.08,22.47-22.52V142.27C146.26,137.11,142.88,130.6,141.96,128.67z M55.97,115.36
				c7.67-6.8,20.4,1.16,16.98,10.37c-2.6,7.14-13.55,10.03-18.66,4.2C50.28,125.34,51.78,119.12,55.97,115.36z"/>
			<path class="st1" d="M72.95,125.72c-2.6,7.14-13.55,10.03-18.66,4.2c-4-4.58-2.51-10.8,1.69-14.56
				C63.64,108.56,76.37,116.51,72.95,125.72z"/>
			<path class="st1" d="M139.82,220.12c-0.23,4.78-4.1,8.67-8.88,8.92c-2.8,0.15-5.35-0.93-7.16-2.75c-1.7-1.7-2.76-4.05-2.76-6.65
				c0-2.6,1.06-4.95,2.76-6.65c1.7-1.7,4.05-2.75,6.65-2.75c2.59,0,4.94,1.05,6.65,2.75C138.89,214.79,139.97,217.33,139.82,220.12z
				"/>
			<path class="st1" d="M139.83,244.91v31.23c0,5.26-4.29,9.5-9.56,9.42c-5.17-0.09-9.26-4.41-9.26-9.56v-31.25
				c0-2.6,1.06-4.95,2.76-6.65c1.69-1.69,4.02-2.75,6.59-2.76C135.57,235.31,139.83,239.71,139.83,244.91z"/>
			<path class="st1" d="M114.73,276.64c-0.24,4.78-4.13,8.66-8.91,8.91c-2.79,0.15-5.34-0.93-7.14-2.75
				c-1.7-1.7-2.76-4.05-2.76-6.65c0-2.59,1.06-4.94,2.76-6.65c1.7-1.7,4.05-2.75,6.65-2.75c2.6,0,4.95,1.05,6.65,2.75
				C113.79,271.3,114.87,273.85,114.73,276.64z"/>
			<path class="st1" d="M114.73,219.81v31.23c0,5.25-4.29,9.5-9.56,9.4c-5.17-0.09-9.26-4.41-9.26-9.56v-31.25
				c0-2.6,1.06-4.95,2.76-6.65c1.69-1.69,4.01-2.74,6.57-2.75C110.47,210.2,114.73,214.59,114.73,219.81z"/>
			<path class="st1" d="M89.61,194.7v31.23c0,5.25-4.3,9.5-9.56,9.4c-5.17-0.08-9.26-4.4-9.26-9.56v-31.25
				c0-2.6,1.05-4.95,2.76-6.65c1.69-1.69,4.01-2.74,6.59-2.75C85.34,185.09,89.61,189.48,89.61,194.7z"/>
			<path class="st1" d="M89.59,276.63c-0.23,4.78-4.1,8.67-8.88,8.92c-2.8,0.15-5.35-0.93-7.16-2.75c-1.71-1.7-2.76-4.05-2.76-6.65
				c0-2.59,1.05-4.94,2.76-6.65c1.7-1.7,4.05-2.75,6.65-2.75c2.59,0,4.94,1.05,6.65,2.75C88.66,271.3,89.74,273.84,89.59,276.63z"/>
			<path class="st1" d="M89.59,251.51c-0.24,4.78-4.13,8.66-8.91,8.9c-2.79,0.15-5.33-0.93-7.13-2.74c-1.71-1.7-2.76-4.06-2.76-6.65
				c0-2.6,1.05-4.95,2.76-6.65c1.7-1.7,4.05-2.76,6.65-2.76c2.59,0,4.94,1.06,6.65,2.76C88.66,246.17,89.74,248.72,89.59,251.51z"/>
			<path class="st1" d="M64.44,194.7v81.43c0,5.25-4.3,9.48-9.57,9.4c-5.15-0.08-9.24-4.41-9.24-9.56v-81.45
				c0-2.6,1.05-4.95,2.75-6.65c1.69-1.69,4.01-2.74,6.59-2.75C60.18,185.09,64.44,189.48,64.44,194.7z"/>
			<path class="st1" d="M39.28,244.91v31.23c0,5.26-4.3,9.5-9.57,9.42c-5.17-0.09-9.24-4.41-9.24-9.56v-31.25
				c0-2.6,1.05-4.95,2.75-6.65c1.69-1.69,4.01-2.74,6.59-2.76C35,235.3,39.28,239.71,39.28,244.91z"/>
			<path class="st1" d="M132.2,155.03c-8.78,8.15-26.29,20.4-52.5,20.57c-27.45,0.19-46.53-14.24-55.56-22.99
				c-2.83-2.74-2.92-7.24-0.23-10.11c0.01-0.01,0.03-0.04,0.04-0.05c0.48-0.5,0.94-1,1.42-1.46c1.59-1.53,3.35-3.71,5.22-4.82
				c1.27-0.78,4.3-1.3,5.67-0.5c3.93,2.38,4.81,8.92,6.44,12.91c2.27,5.52,5.92,9.87,10.39,13.04c11.18,7.97,27.46,8.63,39.99,2.31
				c3.19-1.61,6.12-3.67,8.67-6.16c4.16-4.04,8.31-10.69,9.72-16.39c0.66-2.71-0.08-12.01,4.05-12.66c2.79-0.42,5.8,2.63,7.81,4.14
				c2.56,1.95,5.82,6.77,9.31,10.69c0.03,0.03,0.04,0.04,0.07,0.07C135.66,146.93,135.45,152.01,132.2,155.03z"/>
		</g>
		<path class="st0" d="M153.81,161.07c0-16.77,9.92-27.29,27.79-27.29c17.86,0,27.79,10.52,27.79,27.29v38.9H193.3v-38.9
			c0-7.94-3.77-12.4-11.71-12.4c-7.94,0-11.71,4.47-11.71,12.4v38.9h-16.08V161.07z"/>
		<path class="st0" d="M218,176.05c0-15.78,10.92-26.4,26.5-26.4c15.38,0,26.1,10.22,26.1,26.3v24.01h-13.7v-8.14
			c-2.58,6.05-8.14,9.43-15.18,9.43C230.8,201.26,218,193.12,218,176.05z M255.71,175.46c0-7.05-4.56-11.91-11.31-11.91
			s-11.31,4.86-11.31,11.91c0,7.05,4.57,11.91,11.31,11.91S255.71,182.5,255.71,175.46z"/>
		<path class="st0" d="M280.9,174.96v-45.45h14.89v26.79c3.08-4.37,8.04-6.65,13.89-6.65c11.11,0,23.82,8.14,23.82,25.21
			c0,15.78-10.92,26.4-26.5,26.4C292.01,201.26,280.9,191.44,280.9,174.96z M318.41,175.46c0-7.05-4.57-11.91-11.31-11.91
			s-11.31,4.86-11.31,11.91c0,7.05,4.57,11.91,11.31,11.91S318.41,182.5,318.41,175.46z"/>
		<path class="st0" d="M341.32,136.96c0-5.46,4.07-9.53,9.53-9.53c5.46,0,9.53,4.07,9.53,9.53s-4.07,9.53-9.53,9.53
			C345.39,146.48,341.32,142.41,341.32,136.96z M343.4,150.95h14.89v49.02H343.4V150.95z"/>
		<path class="st0" d="M371.77,129.51h14.89v70.46h-14.89V129.51z"/>
		<path class="st2" d="M153.81,216.74h11.66l14.34,42.36l14.26-42.36h11.41l-19.88,54.85h-11.83L153.81,216.74z"/>
		<path class="st2" d="M211.62,218.16c0-3.86,2.77-6.71,6.63-6.71c3.86,0,6.63,2.85,6.63,6.71c0,3.86-2.77,6.63-6.63,6.63
			C214.39,224.79,211.62,222.02,211.62,218.16z M213.21,230.16h9.98v41.43h-9.98V230.16z"/>
		<path class="st2" d="M231.85,259.35h10.06c0.08,2.77,2.52,4.61,7.38,4.61c5.12,0,7.3-2.1,7.3-4.61c0-3.19-3.69-3.61-8.14-4.19
			c-6.37-0.84-15.77-1.93-15.77-12.08c0-8.47,6.46-14.01,16.44-14.01c10.15,0,16.36,5.7,16.61,13h-9.9
			c-0.25-2.52-2.6-4.28-6.54-4.28c-4.36,0-6.54,2.1-6.54,4.53c0,3.19,3.77,3.69,8.22,4.28c5.54,0.75,15.69,1.85,15.69,12.16
			c0,8.39-6.79,13.92-17.36,13.92C238.73,272.68,232.1,267.06,231.85,259.35z"/>
		<path class="st2" d="M273.89,251.71v-21.56h9.98v21.56c0,7.88,4.19,11.66,10.48,11.66c6.29,0,10.48-3.77,10.48-11.66v-21.56h9.98
			v21.56c0,13.84-8.22,20.97-20.47,20.97C282.11,272.68,273.89,265.64,273.89,251.71z"/>
		<path class="st2" d="M321.97,251.29c0-13.17,9.23-22.23,22.39-22.23c13,0,22.06,8.81,22.06,22.14v20.38h-9.14v-8.14
			c-2.52,6.12-8.14,9.23-14.68,9.23C332.54,272.68,321.97,265.47,321.97,251.29z M356.44,250.88c0-7.3-4.86-12.5-12.16-12.5
			c-7.3,0-12.25,5.2-12.25,12.5c0,7.3,4.95,12.5,12.25,12.5C351.58,263.37,356.44,258.17,356.44,250.88z"/>
		<path class="st2" d="M376.68,212.04h9.98v59.55h-9.98V212.04z"/>
		<path class="st2" d="M155.78,299.05h4.79c0.1,3.03,2.42,5.02,6.64,5.02c4.31,0,6.73-1.99,6.73-5.02c0-3.27-3.32-3.79-7.06-4.45
			c-4.83-0.85-10.38-1.8-10.38-8.77c0-5.64,4.27-9.53,10.76-9.53c6.35,0,10.62,3.7,10.81,9.24h-4.6c-0.14-2.75-2.28-4.79-6.11-4.79
			c-3.98,0-6.21,2.08-6.21,4.93c0,3.27,3.37,3.79,7.11,4.46c4.88,0.85,10.43,1.8,10.43,8.77c0,5.92-4.55,9.62-11.47,9.62
			C160.42,308.53,155.92,304.93,155.78,299.05z"/>
		<path class="st2" d="M185.38,296.21c0-7.11,5.21-12.32,12.61-12.32c7.39,0,12.61,5.21,12.61,12.32s-5.21,12.32-12.61,12.32
			C190.6,308.53,185.38,303.31,185.38,296.21z M206.05,296.21c0-4.74-3.22-8.15-8.06-8.15c-4.83,0-8.06,3.41-8.06,8.15
			s3.22,8.15,8.06,8.15C202.83,304.36,206.05,300.94,206.05,296.21z"/>
		<path class="st2" d="M218.83,274.26h4.5v33.65h-4.5V274.26z"/>
		<path class="st2" d="M232.51,296.73V284.5h4.5v12.23c0,5.07,2.8,7.63,7.06,7.63c4.27,0,7.06-2.56,7.06-7.63V284.5h4.5v12.23
			c0,7.77-4.64,11.8-11.56,11.8C237.15,308.53,232.51,304.55,232.51,296.73z"/>
		<path class="st2" d="M263.96,299.05V276.2h4.5v8.29h12.89v4.12h-12.89v10.43c0,3.7,1.94,5.31,4.88,5.31
			c2.94,0,4.93-1.56,4.93-5.31v-0.52h4.45v0.52c0,6.35-3.79,9.48-9.38,9.48C267.75,308.53,263.96,305.4,263.96,299.05z"/>
		<path class="st2" d="M290.1,277.63c0-1.8,1.33-3.13,3.13-3.13s3.13,1.33,3.13,3.13s-1.33,3.17-3.13,3.17
			S290.1,279.43,290.1,277.63z M291,284.5h4.5v23.41H291V284.5z"/>
		<path class="st2" d="M303.69,296.21c0-7.11,5.21-12.32,12.61-12.32c7.39,0,12.61,5.21,12.61,12.32s-5.21,12.32-12.61,12.32
			C308.9,308.53,303.69,303.31,303.69,296.21z M324.35,296.21c0-4.74-3.22-8.15-8.06-8.15c-4.83,0-8.06,3.41-8.06,8.15
			s3.22,8.15,8.06,8.15C321.13,304.36,324.35,300.94,324.35,296.21z"/>
		<path class="st2" d="M336.28,295.73c0-7.82,4.64-11.85,11.57-11.85c6.92,0,11.56,3.98,11.56,11.85v12.18h-4.5v-12.18
			c0-5.07-2.8-7.68-7.06-7.68c-4.27,0-7.06,2.61-7.06,7.68v12.18h-4.5V295.73z"/>
		<path class="st2" d="M366.88,301.13h4.55c0.1,1.94,1.9,3.32,5.17,3.32c3.41,0,5.17-1.47,5.17-3.32c0-2.23-2.46-2.51-5.4-2.89
			c-4.08-0.52-9.01-1.28-9.01-6.64c0-4.6,3.6-7.73,9.2-7.73s9.05,3.18,9.15,7.2h-4.46c-0.14-1.8-1.8-3.13-4.64-3.13
			c-2.99,0-4.69,1.42-4.69,3.27c0,2.23,2.46,2.47,5.36,2.84c4.08,0.52,9.05,1.28,9.05,6.64c0,4.74-3.84,7.82-9.72,7.82
			C370.72,308.53,367.02,305.4,366.88,301.13z"/>
	</g>
</g>
<g id="Layer_2">
</g>
</svg>
